<?xml version="1.0" encoding="UTF-8"?>
<svg width="800" height="800" viewBox="0 0 800 800" fill="none" xmlns="http://www.w3.org/2000/svg">
  <path d="M400 300C450 300 500 250 500 200C500 150 450 100 400 100C350 100 300 150 300 200C300 250 350 300 400 300Z" fill="white"/>
  <path d="M400 500C350 500 300 550 300 600C300 650 350 700 400 700C450 700 500 650 500 600C500 550 450 500 400 500Z" fill="white"/>
  <path d="M300 200C300 150 250 100 200 100C150 100 100 150 100 200C100 250 150 300 200 300C250 300 300 250 300 200Z" fill="white"/>
  <path d="M500 600C500 650 550 700 600 700C650 700 700 650 700 600C700 550 650 500 600 500C550 500 500 550 500 600Z" fill="white"/>
  <path d="M300 200C300 250 250 300 200 300C150 300 100 250 100 200M300 200C300 150 250 100 200 100C150 100 100 150 100 200M300 200H500M500 200C500 150 450 100 400 100C350 100 300 150 300 200M500 200C500 250 450 300 400 300C350 300 300 250 300 200M500 600C500 550 450 500 400 500C350 500 300 550 300 600M500 600C500 650 450 700 400 700C350 700 300 650 300 600M500 600H700M700 600C700 550 650 500 600 500C550 500 500 550 500 600M700 600C700 650 650 700 600 700C550 700 500 650 500 600" stroke="white" stroke-width="40"/>
</svg> 