<svg width="120" height="40" viewBox="0 0 120 40" fill="none" xmlns="http://www.w3.org/2000/svg">
  <path d="M20 0C31.0457 0 40 8.9543 40 20C40 31.0457 31.0457 40 20 40C8.9543 40 0 31.0457 0 20C0 8.9543 8.9543 0 20 0Z" fill="#522785"/>
  <path d="M20 8C14.4772 8 10 12.4772 10 18C10 23.5228 14.4772 28 20 28C25.5228 28 30 23.5228 30 18C30 12.4772 25.5228 8 20 8ZM20 24C16.6863 24 14 21.3137 14 18C14 14.6863 16.6863 12 20 12C23.3137 12 26 14.6863 26 18C26 21.3137 23.3137 24 20 24Z" fill="white"/>
  <path d="M50 12H55V28H50V12ZM58 12H63L68 24L73 12H78L70 32H66L58 12ZM82 12H87L94 28H89L88 25H81L80 28H75L82 12ZM86.5 21L84.5 16L82.5 21H86.5ZM98 12H103V24H112V28H98V12Z" fill="#522785"/>
</svg> 