<svg width="120" height="40" viewBox="0 0 120 40" fill="none" xmlns="http://www.w3.org/2000/svg">
  <rect width="40" height="40" rx="8" fill="#7B3FE4"/>
  <path d="M8 20C8 13.3726 13.3726 8 20 8C26.6274 8 32 13.3726 32 20C32 26.6274 26.6274 32 20 32C13.3726 32 8 26.6274 8 20Z" fill="white"/>
  <path d="M20 12C22.2091 12 24 13.7909 24 16C24 18.2091 22.2091 20 20 20C17.7909 20 16 18.2091 16 16C16 13.7909 17.7909 12 20 12Z" fill="#7B3FE4"/>
  <path d="M14 24C14 22.8954 14.8954 22 16 22H24C25.1046 22 26 22.8954 26 24V28H14V24Z" fill="#7B3FE4"/>
  <path d="M45 12H65V17H50V19H63V24H50V27H65V32H45V12Z" fill="#7B3FE4"/>
  <path d="M70 12H75L82 22V12H87V32H82L75 22V32H70V12Z" fill="#7B3FE4"/>
  <path d="M92 12H97L104 32H99L98 29H91L90 32H85L92 12ZM96.5 25L94.5 20L92.5 25H96.5Z" fill="#7B3FE4"/>
  <path d="M107 12H112V32H107V12Z" fill="#7B3FE4"/>
</svg> 