<svg width="120" height="40" viewBox="0 0 120 40" fill="none" xmlns="http://www.w3.org/2000/svg">
  <path d="M20 0C31.0457 0 40 8.9543 40 20C40 31.0457 31.0457 40 20 40C8.9543 40 0 31.0457 0 20C0 8.9543 8.9543 0 20 0Z" fill="#7B3FE4"/>
  <path d="M28.2 15.8C26.8 13.4 24.6 12 20 12C15.4 12 13.2 13.4 11.8 15.8C10.4 18.2 10 21.4 10 24C10 26.6 10.4 29.8 11.8 32.2C13.2 34.6 15.4 36 20 36C24.6 36 26.8 34.6 28.2 32.2C29.6 29.8 30 26.6 30 24C30 21.4 29.6 18.2 28.2 15.8ZM20 32C17.2 32 16 31.2 15.2 29.8C14.4 28.4 14 25.8 14 24C14 22.2 14.4 19.6 15.2 18.2C16 16.8 17.2 16 20 16C22.8 16 24 16.8 24.8 18.2C25.6 19.6 26 22.2 26 24C26 25.8 25.6 28.4 24.8 29.8C24 31.2 22.8 32 20 32Z" fill="white"/>
  <path d="M50 12H58.5C63.5 12 66 14.5 66 19.5C66 24.5 63.5 27 58.5 27H55V32H50V12ZM58 22.5C60 22.5 61 21.5 61 19.5C61 17.5 60 16.5 58 16.5H55V22.5H58Z" fill="#7B3FE4"/>
  <path d="M70 12H75V32H70V12ZM80 12H85L90 24L95 12H100L92 36H88L80 12Z" fill="#7B3FE4"/>
  <path d="M104 12H109L116 32H111L110 29H103L102 32H97L104 12ZM108.5 25L106.5 20L104.5 25H108.5Z" fill="#7B3FE4"/>
</svg> 